<?xml version="1.0" encoding="UTF-8"?>
<svg width="60px" height="60px" viewBox="0 0 60 60" version="1.1" xmlns="http://www.w3.org/2000/svg" xmlns:xlink="http://www.w3.org/1999/xlink">
    <!-- Generator: Sketch 52.2 (67145) - http://www.bohemiancoding.com/sketch -->
    <title>Group 3 Copy</title>
    <desc>Created with Sketch.</desc>
    <defs>
        <linearGradient x1="0%" y1="0%" x2="100%" y2="100%" id="linearGradient-1">
            <stop stop-color="#FF4444" offset="0%"></stop>
            <stop stop-color="#E42D2D" offset="100%"></stop>
        </linearGradient>
        <path d="M45.703125,1.02273262e-15 C54.375,1.02273262e-15 60,5.625 60,14.296875 L60,45.703125 C60,54.375 54.375,60 45.703125,60 L14.296875,60 C5.625,60 0,54.375 0,45.703125 L0,14.296875 C0,5.625 5.625,1.02273263e-15 14.296875,1.02273263e-15 L45.703125,1.02273262e-15 Z" id="path-2"></path>
    </defs>
    <g id="第一版" stroke="none" stroke-width="1" fill="none" fill-rule="evenodd">
        <g id="191112-周末酒店商户版-登录（验证码）" transform="translate(-158.000000, -116.000000)">
            <g id="Group-3-Copy" transform="translate(158.000000, 116.000000)">
                <g id="合并形状-+-椭圆形-+-Fill-1-Copy-Mask">
                    <mask id="mask-3" fill="white">
                        <use xlink:href="#path-2"></use>
                    </mask>
                    <use id="Mask" fill="url(#linearGradient-1)" xlink:href="#path-2"></use>
                    <path d="M52.5,86 C41.7304474,86 33,77.2695526 33,66.5 C33,55.7304474 41.7304474,47 52.5,47 C63.2695526,47 72,55.7304474 72,66.5 C72,77.2695526 63.2695526,86 52.5,86 Z M7.5,86 C-3.26955262,86 -12,77.2695526 -12,66.5 C-12,55.7304474 -3.26955262,47 7.5,47 C18.2695526,47 27,55.7304474 27,66.5 C27,77.2695526 18.2695526,86 7.5,86 Z" id="合并形状" fill-opacity="0.8" fill="#FFFFFF" fill-rule="nonzero" mask="url(#mask-3)"></path>
                    <circle id="椭圆形" fill="#FFFFFF" fill-rule="nonzero" mask="url(#mask-3)" cx="30" cy="71" r="28"></circle>
                    <text id="商户版" mask="url(#mask-3)" font-family="DFPZongYiW7, DFPZongYiW7-GB" font-size="10" font-weight="bold" fill="#EB3333">
                        <tspan x="15" y="56">商户版</tspan>
                    </text>
                    <path d="M15.8666011,14.4578142 C15.7841568,14.8516392 15.8809096,14.74671 15.8809096,14.74671 L22.3476788,14.6901573 C22.766714,12.2045632 25.5016852,9.14185874 30.1362826,9.14185874 C35.1047455,9.14185874 38.0468495,12.4089706 38.0468495,17.4517014 C38.0468495,23.2963907 35.1047455,26.4095157 30.1362826,26.4095157 C25.0874195,26.4095157 22.7748903,23.1669327 22.3565365,20.381541 L15.8734147,20.381541 C15.8734147,20.381541 15.9742557,36.1795086 15.9742557,38.2181319 C15.9742557,40.5 16.3101652,40.5 18.1307539,40.5 C20.3369912,40.5 19.5929482,40.4672948 21.0210747,40.4672948 C22.8661923,40.4672948 22.903667,40.3262537 22.903667,39.1781654 C22.903667,36.8172598 24.3794885,31.4958534 30.0599705,31.4958534 C35.4338414,31.4958534 36.8864967,36.8172598 36.8864967,39.1781654 C36.8864967,40.5129458 36.8980798,40.4672948 38.5612748,40.4672948 C41.2369678,40.4672948 40.1542899,40.5 41.7650203,40.5 C43.5985548,40.5 44.2826383,40.3378368 44.2826383,38.092762 C44.2826383,37.4311634 44.255384,22.7158737 44.255384,16.3465387 C44.255384,10.995834 40.2162935,5.5 29.8984886,5.5 C19.558199,5.5 16.6344916,10.7955147 15.8666011,14.4578142 Z" id="Fill-1-Copy" fill="#FFFFFF" mask="url(#mask-3)"></path>
                </g>
            </g>
        </g>
    </g>
</svg>