<?xml version="1.0" standalone="no"?><!DOCTYPE svg PUBLIC "-//W3C//DTD SVG 1.1//EN" "http://www.w3.org/Graphics/SVG/1.1/DTD/svg11.dtd"><svg t="1574074249352" class="icon" viewBox="0 0 1024 1024" version="1.1" xmlns="http://www.w3.org/2000/svg" p-id="4391" width="48" height="48" xmlns:xlink="http://www.w3.org/1999/xlink"><defs><style type="text/css"></style></defs><path d="M171.008 493.568v359.424h681.984V493.568H628.875264c-21.660672 42.541056-65.865728 71.68-116.875264 71.68-51.01056 0-95.214592-29.138944-116.875264-71.68H171.008z m679.128064-59.392l-83.623936-261.743616a2.048 2.048 0 0 0-1.95072-1.424384H259.438592a2.048 2.048 0 0 0-1.95072 1.424384L173.863936 434.176H438.272c0 40.71936 33.00864 73.728 73.728 73.728s73.728-33.00864 73.728-73.728h264.408064zM113.664 443.113472V434.176h0.700416a57.344 57.344 0 0 1 2.019328-8.513536l86.479872-270.681088C210.72896 130.368512 233.601024 113.664 259.438592 113.664h505.122816c25.837568 0 48.71168 16.704512 56.574976 41.317376l86.479872 270.681088A57.344 57.344 0 0 1 910.336 443.113472V852.992c0 31.670272-25.673728 57.344-57.344 57.344H171.008c-31.670272 0-57.344-25.673728-57.344-57.344V443.113472zM280.576 321.536h462.848c15.835136 0 28.672 12.836864 28.672 28.672s-12.836864 28.672-28.672 28.672H280.576c-15.835136 0-28.672-12.836864-28.672-28.672s12.836864-28.672 28.672-28.672z m49.152-94.208h364.544c15.835136 0 28.672 12.836864 28.672 28.672s-12.836864 28.672-28.672 28.672H329.728c-15.835136 0-28.672-12.836864-28.672-28.672s12.836864-28.672 28.672-28.672z" p-id="4392"></path></svg>